<svg width="165" height="32" viewBox="0 0 165 32" fill="none" xmlns="http://www.w3.org/2000/svg">
<path d="M8.12799 2.016C6.50665 2.54933 5.24799 3.43467 4.35199 4.672C3.47732 5.888 3.03999 7.40267 3.03999 9.216C3.03999 10.0267 3.11465 10.5813 3.26399 10.88C3.41332 11.1787 3.48799 11.36 3.48799 11.424C1.20532 11.424 0.0639877 10.4533 0.0639877 8.512C0.0639877 7.18933 0.565321 5.86667 1.56799 4.544C2.59199 3.2 3.89332 2.112 5.47199 1.28C7.07199 0.426665 8.66132 -1.90735e-06 10.24 -1.90735e-06C11.0293 -1.90735e-06 11.84 0.149331 12.672 0.447998L11.936 17.312L18.976 0.447998H23.584L20.224 24H15.616L17.664 9.632L11.648 24H7.26399L7.90399 9.568L2.55999 24H-1.23978e-05L8.12799 2.016ZM26.8835 24.192C25.6675 24.192 24.6542 23.776 23.8435 22.944C23.0328 22.112 22.6275 20.8107 22.6275 19.04C22.6275 17.4613 22.9368 15.808 23.5555 14.08C24.1955 12.3307 25.1342 10.8587 26.3715 9.664C27.6302 8.448 29.1235 7.84 30.8515 7.84C31.7262 7.84 32.3768 7.98933 32.8035 8.288C33.2302 8.58667 33.4435 8.98133 33.4435 9.472V9.696L33.7955 8H38.4035L36.0995 18.88C36.0142 19.2 35.9715 19.5413 35.9715 19.904C35.9715 20.8213 36.4088 21.28 37.2835 21.28C37.8808 21.28 38.3928 21.0027 38.8195 20.448C39.2675 19.8933 39.6195 19.168 39.8755 18.272H41.2195C40.4302 20.576 39.4488 22.144 38.2755 22.976C37.1235 23.7867 35.9608 24.192 34.7875 24.192C33.8915 24.192 33.1662 23.9467 32.6115 23.456C32.0782 22.944 31.7582 22.208 31.6515 21.248C31.0328 22.1227 30.3395 22.8373 29.5715 23.392C28.8248 23.9253 27.9288 24.192 26.8835 24.192ZM28.9635 21.088C29.4968 21.088 30.0195 20.8427 30.5315 20.352C31.0648 19.84 31.4275 19.1467 31.6195 18.272L33.1555 11.04C33.1555 10.7627 33.0488 10.496 32.8355 10.24C32.6222 9.96267 32.2915 9.824 31.8435 9.824C30.9902 9.824 30.2222 10.3253 29.5395 11.328C28.8568 12.3093 28.3235 13.504 27.9395 14.912C27.5555 16.2987 27.3635 17.5253 27.3635 18.592C27.3635 19.6587 27.5128 20.3413 27.8115 20.64C28.1315 20.9387 28.5155 21.088 28.9635 21.088ZM43.0552 24.192C42.0312 24.192 41.1992 23.872 40.5592 23.232C39.9406 22.592 39.6312 21.632 39.6312 20.352C39.6312 19.8187 39.7166 19.1253 39.8872 18.272L41.8072 9.28H40.7512L41.0072 8H42.0632L43.0232 3.584L47.7592 2.944L46.6712 8H48.5912L48.3352 9.28H46.4152L44.3672 18.88C44.2819 19.2 44.2392 19.5413 44.2392 19.904C44.2392 20.3307 44.3352 20.64 44.5272 20.832C44.7406 21.0027 45.0819 21.088 45.5512 21.088C46.1699 21.088 46.7459 20.832 47.2792 20.32C47.8126 19.7867 48.1966 19.104 48.4312 18.272H49.7752C48.9859 20.576 47.9726 22.144 46.7352 22.976C45.4979 23.7867 44.2712 24.192 43.0552 24.192ZM53.4105 32C52.3865 32 51.5332 31.7333 50.8505 31.2C50.1678 30.6667 49.8265 29.8987 49.8265 28.896C49.8265 27.68 50.3172 26.6987 51.2985 25.952C52.2798 25.2267 53.5278 24.6187 55.0425 24.128L55.4265 22.4C54.8078 23.0827 54.1785 23.552 53.5385 23.808C52.8985 24.064 52.2478 24.192 51.5865 24.192C50.5625 24.192 49.7305 23.872 49.0905 23.232C48.4718 22.592 48.1625 21.632 48.1625 20.352C48.1625 19.8187 48.2478 19.1253 48.4185 18.272L50.5945 8H55.2025L52.8985 18.88C52.8345 19.136 52.8025 19.4027 52.8025 19.68C52.8025 20.6187 53.1225 21.088 53.7625 21.088C54.3172 21.088 54.8078 20.8533 55.2345 20.384C55.6612 19.8933 56.0025 19.2533 56.2585 18.464L58.4985 8H63.1065L59.9385 22.848C60.9625 22.5067 61.7838 21.9947 62.4025 21.312C63.0212 20.6293 63.5438 19.616 63.9705 18.272H65.3145C64.7385 20.1707 63.9598 21.568 62.9785 22.464C61.9972 23.3387 60.8878 23.936 59.6505 24.256L59.1705 26.56C58.7438 28.6293 58.0078 30.048 56.9625 30.816C55.9172 31.6053 54.7332 32 53.4105 32ZM52.6745 29.504C53.0372 29.504 53.3892 29.2587 53.7305 28.768C54.0718 28.2773 54.3385 27.5733 54.5305 26.656L54.7225 25.728C52.6318 26.496 51.5865 27.4027 51.5865 28.448C51.5865 28.7253 51.6825 28.9707 51.8745 29.184C52.0665 29.3973 52.3332 29.504 52.6745 29.504ZM74.733 -1.90735e-06H78.093L74.221 6.048H71.821L74.733 -1.90735e-06ZM67.821 24.192C66.605 24.192 65.5917 23.776 64.781 22.944C63.9703 22.112 63.565 20.8107 63.565 19.04C63.565 17.4613 63.8743 15.808 64.493 14.08C65.133 12.3307 66.0717 10.8587 67.309 9.664C68.5677 8.448 70.061 7.84 71.789 7.84C72.6637 7.84 73.3143 7.98933 73.741 8.288C74.1677 8.58667 74.381 8.98133 74.381 9.472V9.696L74.733 8H79.341L77.037 18.88C76.9517 19.2 76.909 19.5413 76.909 19.904C76.909 20.8213 77.3463 21.28 78.221 21.28C78.8183 21.28 79.3303 21.0027 79.757 20.448C80.205 19.8933 80.557 19.168 80.813 18.272H82.157C81.3677 20.576 80.3863 22.144 79.213 22.976C78.061 23.7867 76.8983 24.192 75.725 24.192C74.829 24.192 74.1037 23.9467 73.549 23.456C73.0157 22.944 72.6957 22.208 72.589 21.248C71.9703 22.1227 71.277 22.8373 70.509 23.392C69.7623 23.9253 68.8663 24.192 67.821 24.192ZM69.901 21.088C70.4343 21.088 70.957 20.8427 71.469 20.352C72.0023 19.84 72.365 19.1467 72.557 18.272L74.093 11.04C74.093 10.7627 73.9863 10.496 73.773 10.24C73.5597 9.96267 73.229 9.824 72.781 9.824C71.9277 9.824 71.1597 10.3253 70.477 11.328C69.7943 12.3093 69.261 13.504 68.877 14.912C68.493 16.2987 68.301 17.5253 68.301 18.592C68.301 19.6587 68.4503 20.3413 68.749 20.64C69.069 20.9387 69.453 21.088 69.901 21.088ZM85.2407 -1.90735e-06H86.2647L88.1847 2.56L93.2087 -1.90735e-06H94.6167L87.8327 6.048H87.1607L85.2407 -1.90735e-06ZM84.4727 24.192C83.4487 24.192 82.5847 24 81.8807 23.616C81.1767 23.2107 80.6541 22.6987 80.3127 22.08C79.9714 21.44 79.8007 20.7787 79.8007 20.096C79.8007 19.392 79.9714 18.784 80.3127 18.272C80.6327 17.7387 81.0274 17.3547 81.4967 17.12C82.3287 15.6267 83.0541 14.1227 83.6727 12.608C84.2914 11.072 84.8781 9.41867 85.4327 7.648L90.1687 7.008C90.2754 9.73867 90.4567 12.6933 90.7127 15.872C90.8194 17.152 90.8727 18.08 90.8727 18.656C90.8727 19.1467 90.8301 19.552 90.7447 19.872C91.7474 19.296 92.5154 18.7627 93.0487 18.272H94.3927C93.0274 19.8507 91.3954 21.184 89.4967 22.272C88.8781 22.9333 88.1101 23.424 87.1927 23.744C86.2967 24.0427 85.3901 24.192 84.4727 24.192ZM83.4487 21.664C84.2381 21.664 84.8994 21.4293 85.4327 20.96C85.9661 20.4907 86.2327 19.7333 86.2327 18.688C86.2327 18.048 86.1687 17.152 86.0407 16C85.8274 13.568 85.6887 11.936 85.6247 11.104C85.1127 12.7893 84.2487 14.8053 83.0327 17.152C83.5234 17.408 83.7687 17.7813 83.7687 18.272C83.7687 18.6773 83.6301 19.04 83.3527 19.36C83.0967 19.68 82.7661 19.84 82.3607 19.84C81.9127 19.84 81.6247 19.7013 81.4967 19.424C81.4967 20.192 81.6461 20.7573 81.9447 21.12C82.2647 21.4827 82.7661 21.664 83.4487 21.664ZM111.959 24.544C111.105 24.544 110.359 24.3627 109.719 24C109.1 23.6587 108.791 23.0507 108.791 22.176C108.791 21.6213 108.929 21.0027 109.207 20.32C109.591 20.7467 109.943 21.0453 110.263 21.216C110.604 21.3867 110.967 21.472 111.351 21.472C112.417 21.472 113.207 20.8747 113.719 19.68C114.252 18.4853 114.519 17.1627 114.519 15.712C114.519 13.0027 113.505 11.648 111.479 11.648C110.903 11.648 110.412 11.68 110.007 11.744L107.383 24H102.775L107.127 3.648L111.863 3.008L110.359 10.112H110.551C111.361 10.112 112.119 9.856 112.823 9.344C113.527 8.81067 114.092 8.14933 114.519 7.36C114.945 6.54933 115.159 5.73867 115.159 4.928C115.159 3.94667 114.807 3.12533 114.103 2.464C113.42 1.80267 112.364 1.472 110.935 1.472C109.633 1.472 108.364 1.77066 107.127 2.368C105.889 2.944 104.876 3.81867 104.087 4.992C103.319 6.16533 102.935 7.584 102.935 9.248C102.935 10.0373 103.009 10.592 103.159 10.912C103.308 11.2107 103.383 11.3813 103.383 11.424C102.252 11.424 101.399 11.2 100.823 10.752C100.247 10.2827 99.9587 9.52533 99.9587 8.48C99.9587 7.02933 100.503 5.65333 101.591 4.352C102.679 3.05067 104.119 2.00533 105.911 1.216C107.703 0.405332 109.591 -1.90735e-06 111.575 -1.90735e-06C113.068 -1.90735e-06 114.327 0.234665 115.351 0.703999C116.375 1.17333 117.132 1.792 117.623 2.56C118.135 3.328 118.391 4.17067 118.391 5.088C118.391 6.06933 118.113 7.01867 117.559 7.936C117.004 8.85333 116.215 9.6 115.191 10.176C116.471 10.4107 117.42 11.008 118.039 11.968C118.657 12.9067 118.967 14.0267 118.967 15.328C118.967 16.544 118.732 17.8667 118.263 19.296C117.815 20.7253 117.057 21.9627 115.991 23.008C114.945 24.032 113.601 24.544 111.959 24.544ZM125.419 6.272C124.715 6.272 124.117 6.02667 123.627 5.536C123.136 5.04533 122.891 4.448 122.891 3.744C122.891 3.04 123.136 2.44267 123.627 1.952C124.117 1.44 124.715 1.184 125.419 1.184C126.123 1.184 126.72 1.44 127.211 1.952C127.723 2.44267 127.979 3.04 127.979 3.744C127.979 4.448 127.723 5.04533 127.211 5.536C126.72 6.02667 126.123 6.272 125.419 6.272ZM123.243 24.192C122.219 24.192 121.387 23.872 120.747 23.232C120.128 22.592 119.819 21.632 119.819 20.352C119.819 19.8187 119.904 19.1253 120.075 18.272L122.251 8H126.859L124.555 18.88C124.469 19.2 124.427 19.5413 124.427 19.904C124.427 20.3307 124.523 20.64 124.715 20.832C124.928 21.0027 125.269 21.088 125.739 21.088C126.357 21.088 126.933 20.832 127.467 20.32C128 19.7867 128.384 19.104 128.619 18.272H129.963C129.173 20.576 128.16 22.144 126.923 22.976C125.685 23.7867 124.459 24.192 123.243 24.192ZM134.878 -1.90735e-06H135.902L137.822 2.56L142.846 -1.90735e-06H144.254L137.47 6.048H136.798L134.878 -1.90735e-06ZM133.182 24.192C131.603 24.192 130.377 23.7867 129.502 22.976C128.627 22.144 128.19 20.8533 128.19 19.104C128.19 17.632 128.478 16.0107 129.054 14.24C129.651 12.4693 130.59 10.944 131.87 9.664C133.171 8.36267 134.814 7.712 136.798 7.712C138.078 7.712 138.985 7.98933 139.518 8.544C140.073 9.09867 140.35 9.80267 140.35 10.656C140.35 11.4027 140.19 11.9787 139.87 12.384C139.55 12.7893 139.145 12.992 138.654 12.992C138.291 12.992 137.918 12.864 137.534 12.608C137.79 11.904 137.918 11.2747 137.918 10.72C137.918 10.3147 137.843 9.99467 137.694 9.76C137.545 9.52533 137.321 9.408 137.022 9.408C136.382 9.408 135.742 9.93067 135.102 10.976C134.462 12.0213 133.939 13.2907 133.534 14.784C133.129 16.2773 132.926 17.6213 132.926 18.816C132.926 19.8613 133.107 20.576 133.47 20.96C133.833 21.3227 134.419 21.504 135.23 21.504C136.382 21.504 137.363 21.2373 138.174 20.704C139.006 20.1707 139.913 19.36 140.894 18.272H141.982C139.614 22.2187 136.681 24.192 133.182 24.192ZM147.351 -1.90735e-06H150.711L146.839 6.048H144.439L147.351 -1.90735e-06ZM144.055 24.192C143.031 24.192 142.199 23.872 141.559 23.232C140.941 22.592 140.631 21.632 140.631 20.352C140.631 19.8187 140.717 19.1253 140.887 18.272L143.063 8H147.671L145.367 18.88C145.282 19.2 145.239 19.5413 145.239 19.904C145.239 20.3307 145.335 20.64 145.527 20.832C145.741 21.0027 146.082 21.088 146.551 21.088C147.17 21.088 147.746 20.832 148.279 20.32C148.813 19.7867 149.197 19.104 149.431 18.272H150.775C149.986 20.576 148.973 22.144 147.735 22.976C146.498 23.7867 145.271 24.192 144.055 24.192ZM161.45 24.192C160.128 24.192 159.125 23.8827 158.442 23.264C157.76 22.624 157.418 21.7173 157.418 20.544C157.418 20.032 157.482 19.4773 157.61 18.88L157.866 17.632C157.952 17.2693 157.994 16.8747 157.994 16.448C157.994 15.424 157.61 14.912 156.842 14.912C156.501 14.912 156.138 15.008 155.754 15.2C155.392 15.392 154.965 15.6907 154.474 16.096L152.81 24H148.202L152.842 2.24L157.578 1.6L155.178 12.864L161.354 8H164.522L158.122 12.448C158.442 12.3627 158.794 12.32 159.178 12.32C160.33 12.32 161.205 12.672 161.802 13.376C162.4 14.08 162.698 14.976 162.698 16.064C162.698 16.512 162.656 16.9173 162.57 17.28L162.218 18.88C162.112 19.264 162.058 19.6053 162.058 19.904C162.058 20.6933 162.474 21.088 163.306 21.088C163.776 21.088 164.074 21.056 164.202 20.992C164.33 20.928 164.405 20.896 164.426 20.896C164.384 21.6 164.181 22.1973 163.818 22.688C163.477 23.1787 163.072 23.552 162.602 23.808C162.154 24.064 161.77 24.192 161.45 24.192Z" fill="white"/>
</svg>
